<svg width="92" height="57" viewBox="0 0 92 57" fill="none" xmlns="http://www.w3.org/2000/svg">
<path d="M56.1136 12.9108C57.0707 10.236 58.2483 9.51531 60.1647 9.65814C63.6998 9.87455 67.6032 13.1986 70.5472 13.415C74.8916 13.705 77.1013 9.58456 78.0584 6.7669C78.1312 6.40549 77.6902 6.1155 77.5424 6.55049C76.6581 9.29673 75.4805 10.5259 73.4913 10.3809C69.7357 10.091 66.4961 6.91189 63.1088 6.62407C59.5737 6.33408 56.5547 9.87671 55.5976 12.6944C55.4498 13.0558 55.9658 13.3458 56.1136 12.9108Z" fill="#f4e9e6"/>
<path d="M91.3872 52.0875C90.2824 53.7495 89.2525 55.4115 87.4839 55.4115C85.863 55.4115 84.9808 53.1717 84.6126 51.2197L80.9297 30.9139C79.0155 20.3639 73.0502 18.7733 66.9372 18.7733C56.6759 18.7733 48.4458 24.4865 43.4464 35.1296V0.34594C43.4464 0.0559503 43.1509 -0.0868806 43.0054 0.0559503C40.3546 1.43016 34.9781 3.38001 32.1068 4.17424C31.7385 4.24565 31.7385 4.68064 32.1068 4.60706C36.7467 4.24565 37.7038 6.84691 37.7038 10.6774V43.9569C34.3849 49.6356 29.3811 53.6738 22.9769 53.6738C14.1403 53.6738 9.20488 48.4713 7.14293 42.6174C6.70188 39.0033 9.79369 37.4863 14.0653 36.4756C22.0176 34.6686 33.9482 34.7422 33.9482 26.7913C33.9482 22.0952 27.0258 18.8425 19.2941 18.8425C6.84743 18.8447 0 28.3126 0 39.0791C0 48.8348 7.8795 56.7122 18.6303 56.7122C27.0523 56.7122 33.4565 52.2584 37.7038 45.2727V48.0406C37.7038 53.6781 37.5561 55.628 31.9591 55.7015C31.518 55.7015 31.518 56.2079 31.9591 56.2079C35.7874 56.2079 36.4512 55.9915 37.7766 55.9915H43.3736C44.699 55.9915 45.3628 56.2079 49.1912 56.2079C49.6323 56.2079 49.6323 55.7015 49.1912 55.7015C43.5942 55.6301 43.4464 53.6781 43.4464 48.0406V36.638C47.9077 26.3044 56.1401 19.4961 65.9073 19.4961C69.8107 19.4961 73.4913 23.253 74.9644 30.1911C75.626 39.514 48.6002 39.2955 48.6002 49.4126C48.6002 54.1823 52.6513 57 57.9528 57C68.8514 57 75.7738 46.8828 76.3626 37.7048L78.8656 50.8561C79.3816 53.5309 80.9275 56.7814 85.4925 56.7814C88.8798 56.7814 90.4257 54.903 91.9738 52.3731C92.1216 52.0117 91.6055 51.7953 91.385 52.0832L91.3872 52.0875ZM5.96531 35.8286C5.96531 24.9172 11.9306 19.4961 19.2941 19.4961C25.7004 19.4961 27.6896 23.1816 27.7624 26.9384C27.8352 33.948 20.1762 34.3808 13.9926 35.8264C10.3097 36.6942 7.21791 37.9948 6.6291 40.8861C6.18804 39.1526 5.96531 37.417 5.96531 35.8264V35.8286ZM62.5927 54.4723C58.2483 54.4723 54.9338 52.3775 54.9338 48.692C54.9338 39.0076 73.0502 39.1526 75.3327 32.2167L75.9215 35.2529C75.8487 44.5759 69.9562 54.4745 62.5927 54.4745V54.4723Z" fill="#f4e9e6"/>
</svg>
